<?xml version="1.0" encoding="utf-8"?>
<!-- Generator: Adobe Illustrator 21.1.0, SVG Export Plug-In . SVG Version: 6.00 Build 0)  -->
<svg version="1.1" id="Layer_1" xmlns="http://www.w3.org/2000/svg" xmlns:xlink="http://www.w3.org/1999/xlink" x="0px" y="0px"
	 width="492px" height="122px" viewBox="0 0 492 122" style="enable-background:new 0 0 492 122;" xml:space="preserve">
<style type="text/css">
	.st0{fill:url(#SVGID_1_);}
	.st1{fill:#FFFFFF;}
</style>
<g>
	<g>
		<g>
			
				<linearGradient id="SVGID_1_" gradientUnits="userSpaceOnUse" x1="68.3" y1="114.4" x2="68.3" y2="12.525" gradientTransform="matrix(1 0 0 -1 0 124)">
				<stop  offset="0" style="stop-color:#F9B71F"/>
				<stop  offset="8.025751e-02" style="stop-color:#F9B71F"/>
				<stop  offset="1" style="stop-color:#F28621"/>
			</linearGradient>
			<path id="SVGID_2_" class="st0" d="M102.3,9.6H76v18.7c0,0.7,0.6,1.3,1.3,1.3h11.2c1,0,1.6,1.1,1.1,1.9L69.4,66.6
				c-0.5,0.8-1.7,0.8-2.2,0L47,31.5c-0.5-0.9,0.1-1.9,1.1-1.9h11.3c0.7,0,1.3-0.6,1.3-1.3V9.6H34.3H11c-1,0-1.6,1.1-1.1,1.9
				l57.3,99.3c0.5,0.9,1.7,0.9,2.2,0l57.3-99.3c0.5-0.8-0.1-1.9-1.1-1.9H102.3z"/>
		</g>
	</g>
	<path class="st1" d="M418.5,46.5c-12,0-19.6,7.9-19.6,17.5c0,9.7,7.4,17.5,19.6,17.5s19.6-7.9,19.6-17.5
		C438.1,54.3,430.7,46.5,418.5,46.5 M418.5,74.6c-7.4,0-11.7-4.7-11.7-10.6s4.4-10.6,11.7-10.6c7.4,0,11.7,4.7,11.7,10.6
		C430.1,69.9,425.9,74.6,418.5,74.6"/>
	<path class="st1" d="M177.5,47.8H170L158.9,67c-0.2,0.3-0.6,0.3-0.7,0L147,47.8h-7.5c-0.3,0-0.5,0.3-0.4,0.6l19,32.9
		c0.2,0.3,0.6,0.3,0.7,0l19-32.9C178,48.1,177.8,47.8,177.5,47.8"/>
	<path class="st1" d="M258,61.8h-20.1c-0.2,0-0.4,0.2-0.4,0.4v6.2c0,0.2,0.2,0.4,0.4,0.4H251c0,0,0,0.3-0.2,0.9
		c-1.4,3.3-4.4,5.4-10.7,5.4c-7.3,0-11.6-4.7-11.6-10.5c0-6,4.4-10.6,11.6-10.7c4.4,0,6.7,0.8,10.4,2.7l0.2,0.1
		c0.2,0.1,0.4,0,0.5-0.1l2.9-5c0.1-0.2,0.1-0.4-0.1-0.6l-0.2-0.1c-5-3.1-9-3.9-13.6-3.9c-11.9,0-19.5,7.8-19.5,17.6
		c0,9.6,7.3,17.4,19.5,17.4c12.5,0,18.6-7.4,18.6-16.9l-0.1-2.7c0,0,0-0.1,0-0.2c0-0.2-0.2-0.4-0.4-0.4L258,61.8L258,61.8z"/>
	<path class="st1" d="M452.4,65.7V81h-6.6c-0.2,0-0.4-0.2-0.4-0.4V47.8c0-0.7,0.4-0.7,0.9-0.1l18.1,20.9l18.1-20.9
		c0.5-0.6,0.9-0.6,0.9,0.1v32.8c0,0.2-0.2,0.4-0.4,0.4h-6.6V65.7l-11.6,13.5c-0.2,0.2-0.6,0.2-0.8,0L452.4,65.7z"/>
	<path class="st1" d="M355.6,77.5c0,2.2-1.8,4-4,4s-4-1.8-4-4s1.8-4,4-4C353.8,73.5,355.6,75.3,355.6,77.5"/>
	<path class="st1" d="M334.2,56.3c-1.3-0.7-4.7-2.5-10.9-2.6c-7-0.1-8.5,1.7-8.9,2.2c-0.3,0.4-0.5,1.2-0.4,1.8
		c0.5,2.2,7,2.6,9.9,2.8l1.3,0.1c7.5,0.4,15,1.1,15.1,10.1c0,3.1-1.8,6.2-5.3,8.2c-3.3,1.9-7,2.9-12.3,2.8
		c-5.1-0.1-9.8-1.3-15.2-4.2l-0.5-0.3c-0.2-0.1-0.3-0.4-0.1-0.6l3.1-5.3c0.1-0.2,0.3-0.3,0.5-0.1l0.3,0.2c2.5,1.2,4.2,1.8,6,2.3
		c3.5,0.9,6.9,1.5,11.8,0.5c0,0,4-0.9,4.5-3.1l0.1-0.3c0-1.8-1.1-2.8-8.4-3.4l-1.3-0.1c-7.3-0.5-15.4-1-16.6-8.5
		c-0.4-2.6,0.3-5.1,2-7.1c2.8-3.2,6.8-4.8,14-4.8c8.1,0,12.6,2.6,14.7,3.6l0.3,0.2c0.2,0.1,0.3,0.4,0.1,0.6l-3,5.1
		c-0.1,0.2-0.4,0.3-0.6,0.1L334.2,56.3z"/>
	<path class="st1" d="M390.4,72.1L390.4,72.1c-3.6,1.9-5.7,2.6-10,2.6c-7.3,0-11.6-4.8-11.6-10.7c0-5.8,4.4-10.6,11.6-10.7
		c4.3,0,6.4,0.7,10,2.6l0.3,0.2c0.2,0.1,0.4,0,0.5-0.1l3-5.1c0.1-0.2,0.1-0.4-0.1-0.5l-0.1-0.1c-4.9-2.8-10.3-3.7-13.5-3.7
		c-12,0-19.6,7.9-19.6,17.5s7.3,17.4,19.4,17.5l0,0c4.9,0,8.7-0.8,13.7-3.7l0.2-0.1c0.2-0.1,0.3-0.4,0.1-0.6l-3-5.1
		c-0.1-0.2-0.4-0.3-0.6-0.1L390.4,72.1z"/>
	<path class="st1" d="M213.9,80.6v-6.2c0-0.2-0.2-0.4-0.4-0.4h-22.4v-6.9h17.8c0.2,0,0.4-0.2,0.4-0.4v-6.2c0-0.2-0.2-0.4-0.4-0.4
		h-17.8v-5.3h22.4c0.2,0,0.4-0.2,0.4-0.4v-6.2c0-0.2-0.2-0.4-0.4-0.4h-29.4V81h29.4C213.8,81,213.9,80.8,213.9,80.6"/>
	<path class="st1" d="M301,80.4l-19-32.7c-0.2-0.3-0.6-0.3-0.7,0l-19,32.7c-0.2,0.3,0,0.6,0.4,0.6h7l2.3-4h19.4l2.3,4h7
		C301,81,301.2,80.7,301,80.4 M287.7,70.7h-12.1l6-10.3L287.7,70.7z"/>
</g>
</svg>
